<?xml version="1.0" encoding="utf-8"?>
<svg xmlns="http://www.w3.org/2000/svg" fill="none" height="41" viewBox="0 0 130 41" width="130">
<g clip-path="url(#clip0_476_21718)">
<path d="M81.983 0L68.8992 24.2027H63.1305L74.83 0H81.983ZM66.4767 0L53.3922 24.2027H47.0588L60.0053 0H66.4767ZM67.7584 24.2027H62.1164L61.3195 0H66.4789L67.7584 24.2027ZM51.4914 24.2027H46.1924L45.4648 0H51.8352L51.4914 24.2027ZM103.958 24.2027H97.7592L104.025 0H110.255L103.958 24.2027ZM81.7078 24.2027H75.4777L81.7794 0H87.9741L81.7078 24.2027ZM79.1835 0H117.397L115.976 5.15268H77.7607L79.1835 0ZM82.5764 0H91.0865C94.7923 0 100.294 2.24987 98.7017 9.50992C97.8037 13.6915 94.6196 18.1173 88.2636 18.1173H77.7758C77.7396 18.2568 78.9181 13.0717 78.9512 12.9315H87.9175C90.4773 12.8983 92.0018 11.4446 92.5869 9.2332C93.0732 7.36409 92.6917 5.15268 90.0272 5.15268H81.1642L82.5764 0Z" fill="white"/>
<path d="M52.6336 40.2677H50.3891L50.6952 39.154C49.5431 40.196 48.6398 40.5692 47.26 40.5692C46.0787 40.6016 44.9278 40.1915 44.033 39.4194C43.089 38.5516 42.6759 37.3324 42.7618 35.688C42.8486 33.8832 43.4885 32.1488 44.5947 30.72C45.9217 29.047 47.7169 28.1746 49.948 28.1746C51.75 28.1746 53.1674 28.7778 53.944 29.8718C54.4552 30.5889 54.6294 31.2848 54.5895 32.3984H51.9023V32.133C51.9407 31.0382 51.0963 30.2948 49.8228 30.2948C49.1552 30.3115 48.5033 30.5008 47.9306 30.8443C47.3579 31.1879 46.884 31.674 46.5551 32.2551C45.9591 33.2624 45.6084 34.3958 45.5312 35.5636C45.4377 37.3158 46.4224 38.4461 48.0479 38.4461C48.5359 38.4493 49.0179 38.3392 49.4559 38.1244C49.894 37.9095 50.2762 37.5958 50.5723 37.208C50.8985 36.7912 51.1258 36.3057 51.2373 35.7883H48.7492L49.3403 33.6131H54.3919L52.6336 40.2677Z" fill="white"/>
<path d="M57.6702 38.0035H62.8508L62.2363 40.2654H54.2954L57.4244 28.4709H60.1832L57.6702 38.0035Z" fill="white"/>
<path d="M76.0152 33.3733C75.8922 35.0588 75.2989 36.6759 74.303 38.0412C73.0649 39.715 71.2169 40.5708 68.8487 40.5708C65.4181 40.5708 63.451 38.6579 63.6183 35.4762C63.7186 33.5641 64.5118 31.5706 65.6933 30.2609C66.8748 28.9512 68.6858 28.1761 70.7125 28.1761C74.2886 28.1746 76.1894 30.0513 76.0152 33.3733ZM67.5707 31.9242C66.8775 32.9937 66.4716 34.2237 66.3922 35.4958C66.2995 37.3174 67.2819 38.4476 68.9791 38.4476C69.6439 38.46 70.2998 38.2924 70.8771 37.9626C71.4545 37.6327 71.9319 37.1529 72.2589 36.5739C72.8223 35.5944 73.1574 34.5004 73.2391 33.3733C73.3439 31.3376 72.4617 30.2963 70.6236 30.2963C70.0171 30.2805 69.4168 30.4222 68.8814 30.7075C68.346 30.9928 67.8936 31.412 67.5684 31.9242H67.5707Z" fill="white"/>
<path d="M78.8524 28.4725H83.3273C84.7395 28.4725 85.6503 28.6685 86.3153 29.1103C86.6684 29.3627 86.9504 29.7019 87.1341 30.0951C87.3178 30.4883 87.397 30.9222 87.3641 31.3549C87.2924 32.7347 86.4593 33.7601 85.0411 34.22C86.0966 34.6264 86.5566 35.3171 86.4993 36.3953C86.4627 36.992 86.2935 37.5731 86.0039 38.0961C85.7144 38.6191 85.3118 39.071 84.8254 39.4187C83.9101 40.0551 82.9133 40.2677 80.9462 40.2677H75.7136L78.8524 28.4725ZM81.2425 38.0027C82.7987 38.0027 83.6756 37.4554 83.7307 36.43C83.7736 35.6338 83.2526 35.2801 82.0244 35.2801H79.7074L78.9904 38.0027H81.2425ZM82.2898 33.1931C83.2986 33.1931 83.7623 33.1049 84.1657 32.8063C84.3349 32.6928 84.4746 32.5405 84.5732 32.3622C84.6718 32.1839 84.7265 31.9846 84.7327 31.7809C84.7734 31.0179 84.3097 30.7359 82.9661 30.7359H80.898L80.2578 33.1931H82.2898Z" fill="white"/>
<path d="M89.9246 37.8625L88.5599 40.2677H85.6578L92.6955 28.4725H95.5402L96.6011 40.2669H93.9365L93.7955 37.8618L89.9246 37.8625ZM93.5437 33.2301L93.4954 31.4447L93.3763 31.6837L93.1373 32.1421C92.936 32.5681 92.8214 32.7453 92.5492 33.2391L91.1649 35.6971H93.6387L93.5437 33.2301Z" fill="white"/>
<path d="M100.345 38.0035H105.525L104.913 40.2654H96.9766L100.106 28.4709H102.869L100.345 38.0035Z" fill="white"/>
<path d="M5.4505 37.9085C5.38039 38.187 5.37466 38.4778 5.43375 38.7588C5.49284 39.0399 5.61519 39.3038 5.79151 39.5305C5.96783 39.7571 6.19348 39.9407 6.45133 40.0671C6.70919 40.1935 6.99246 40.2596 7.27965 40.2601H27.444C28.29 40.2614 29.112 39.9789 29.7785 39.4579C30.445 38.9368 30.9175 38.2073 31.1204 37.386L38.7778 7.74639C38.8448 7.46884 38.8481 7.17974 38.7876 6.90072C38.727 6.6217 38.6041 6.35999 38.4281 6.13518C38.2521 5.91036 38.0275 5.72828 37.7712 5.60253C37.5149 5.47679 37.2334 5.41064 36.9479 5.40906H16.7843C15.939 5.40862 15.1179 5.69129 14.452 6.21194C13.786 6.7326 13.3136 7.46126 13.1102 8.28171L5.4505 37.9085Z" fill="#FF0049"/>
<path d="M0.0565573 32.5145C-0.013223 32.793 -0.0187154 33.0838 0.0404943 33.3647C0.0997041 33.6457 0.222064 33.9095 0.398309 34.1361C0.574554 34.3628 0.800064 34.5464 1.05776 34.673C1.31546 34.7996 1.59859 34.8659 1.88571 34.8669H22.0501C22.898 34.8675 23.7215 34.5831 24.3884 34.0594C25.0552 33.5357 25.5267 32.8031 25.7272 31.9792L33.3839 2.33886C33.451 2.06136 33.4544 1.77227 33.394 1.49325C33.3335 1.21422 33.2107 0.952488 33.0348 0.727653C32.8588 0.502818 32.6343 0.320708 32.378 0.194958C32.1216 0.0692088 31.8402 0.00308024 31.5547 0.00152613H11.3903C10.5447 0.00121779 9.7234 0.284196 9.05744 0.805296C8.39147 1.3264 7.91927 2.05558 7.71621 2.87644L0.0565573 32.5145Z" fill="#005EE1"/>
<path d="M25.7347 31.9686L32.6027 5.37811H16.782C15.9367 5.37791 15.1157 5.66098 14.4501 6.1821C13.7845 6.70323 13.3128 7.43235 13.1101 8.25303L6.24292 34.8405H22.0576C22.9034 34.8419 23.7252 34.5598 24.3918 34.0392C25.0584 33.5186 25.5312 32.7896 25.7347 31.9686V31.9686Z" fill="white"/>
<path d="M16.4812 23.0498C15.7626 23.0755 14.3904 22.5846 14.8036 20.8437C15.1926 19.1895 17.7222 17.2246 19.6509 15.7219C19.8891 15.5387 20.1161 15.3615 20.3295 15.1994L20.4803 15.124L20.5896 15.1994C20.7253 15.3691 20.8693 15.547 21.0209 15.7219C22.2415 17.2216 23.843 19.1902 23.4539 20.8437C23.3128 21.4617 22.9689 22.0147 22.4769 22.4145C21.985 22.8143 21.3734 23.038 20.7396 23.0498C20.1101 23.0257 19.3071 22.8561 18.8321 22.1194C18.1875 22.7006 17.3556 23.0308 16.4879 23.0498H16.4812Z" fill="black"/>
<path d="M18.2108 24.7637C17.1085 24.7637 16.157 24.839 16.157 24.839L16.0944 24.5782C16.9826 24.5782 18.6135 23.0544 18.6135 23.0544C18.6135 23.0544 19.528 24.5782 20.423 24.5782L20.2322 24.839C20.2322 24.839 19.3064 24.7637 18.2108 24.7637Z" fill="black"/>
<path d="M124.711 0L124.494 0.829375H123.342L122.42 4.31954H121.357L122.282 0.829375H121.133L121.355 0H124.711Z" fill="white"/>
<path d="M130 0L128.855 4.32255H127.8L128.492 1.73038L126.833 4.32255H125.981L125.691 1.71756L125.005 4.32255H123.949L125.093 0H126.339L126.769 2.99329L128.76 0H130Z" fill="white"/>
</g>
<defs>
<clipPath id="clip0_476_21718">
<rect fill="white" height="40.5708" width="130"/>
</clipPath>
</defs>
</svg>