<svg width="1920" height="480" viewBox="0 0 1920 480" fill="none" xmlns="http://www.w3.org/2000/svg">
<g clip-path="url(#clip0_310_5771)">
<path d="M792.476 278.662C789.76 275.95 785.006 275.95 781.61 278.662C769.386 289.51 753.088 296.29 736.11 296.29C698.08 296.29 668.878 267.136 668.878 229.167C668.878 191.199 698.759 162.045 736.11 162.045C753.088 162.045 769.386 168.147 781.61 179.673C785.006 182.385 789.08 182.385 792.476 179.673L806.737 166.113C808.096 164.757 809.454 162.723 809.454 160.011C809.454 157.977 808.775 155.943 806.737 154.587C788.401 137.637 761.916 127.467 736.789 127.467C679.065 127.467 633.564 172.215 633.564 229.167C633.564 286.12 679.065 330.868 736.789 330.868C761.916 330.868 788.401 320.698 806.737 303.748C808.096 302.392 809.454 300.358 809.454 298.324C809.454 296.29 808.775 294.256 806.737 292.222L792.476 278.662Z" fill="white"/>
<path d="M897.078 186.438C855.652 186.438 823.055 218.305 823.055 258.307C823.055 298.987 855.652 330.175 897.078 330.175C938.503 330.175 971.101 298.309 971.101 258.307C971.101 218.305 938.503 186.438 897.078 186.438ZM937.145 258.307C937.145 280.681 919.488 298.987 896.399 298.987C873.988 298.987 856.331 281.359 856.331 258.307C856.331 235.933 873.988 217.627 896.399 217.627C919.488 218.305 937.145 235.933 937.145 258.307Z" fill="white"/>
<path d="M1021.32 189.157H1002.98C998.91 189.157 994.835 192.547 994.835 197.293V320.69C994.835 324.758 998.231 328.826 1002.98 328.826H1021.32C1025.4 328.826 1029.47 325.436 1029.47 320.69V196.615C1029.47 192.547 1025.4 189.157 1021.32 189.157Z" fill="white"/>
<path d="M1012.51 126.783C1005.04 126.783 998.932 130.173 994.857 136.275C990.782 142.377 990.782 150.513 994.178 157.971C994.857 158.649 994.857 159.327 995.536 160.005C1000.29 164.751 1006.4 167.463 1011.83 167.463C1014.55 167.463 1017.27 166.785 1019.3 166.107C1027.45 162.717 1032.21 155.259 1032.21 147.123C1032.89 136.275 1023.38 126.783 1012.51 126.783Z" fill="white"/>
<path d="M1135.44 186.439C1120.5 186.439 1108.28 191.863 1098.77 201.355V196.609C1098.77 192.541 1095.38 188.473 1090.62 188.473H1071.61C1067.53 188.473 1063.46 191.863 1063.46 196.609V320.006C1063.46 324.074 1066.85 328.142 1071.61 328.142H1090.62C1094.7 328.142 1098.77 324.752 1098.77 320.006V248.816C1098.77 229.153 1109.64 216.949 1127.3 216.949C1145.63 216.949 1153.78 227.119 1153.78 248.138V320.006C1153.78 324.074 1157.18 328.142 1161.93 328.142H1180.95C1185.02 328.142 1189.09 324.752 1189.09 320.006V244.07C1187.74 208.813 1168.04 186.439 1135.44 186.439Z" fill="white"/>
<path d="M1307.26 129.502H1233.23C1229.16 129.502 1225.08 132.892 1225.08 137.638V320.7C1225.08 324.768 1228.48 328.836 1233.23 328.836H1253.61C1257.68 328.836 1261.76 325.446 1261.76 320.7V255.611H1307.26C1344.61 255.611 1371.77 229.169 1371.77 193.235C1371.77 155.944 1344.61 129.502 1307.26 129.502ZM1336.46 192.557C1336.46 212.219 1324.23 223.067 1303.86 223.067H1261.76V161.368H1303.18C1323.55 161.368 1336.46 173.573 1336.46 192.557Z" fill="white"/>
<path d="M1446.46 186.438C1405.03 186.438 1372.44 218.305 1372.44 258.307C1372.44 298.987 1405.03 330.175 1446.46 330.175C1487.89 330.175 1520.48 298.309 1520.48 258.307C1520.48 218.305 1487.89 186.438 1446.46 186.438ZM1446.46 218.305C1468.87 218.305 1487.21 235.933 1487.21 258.985C1487.21 281.359 1469.55 299.665 1446.46 299.665C1424.05 299.665 1406.39 282.037 1406.39 258.985C1405.71 235.933 1423.37 218.305 1446.46 218.305Z" fill="white"/>
<path d="M1609.47 253.572L1658.36 202.722C1660.4 200.688 1661.08 197.298 1659.72 194.586C1658.36 191.874 1655.64 189.84 1652.25 189.84H1629.84C1627.8 189.84 1625.76 190.518 1624.41 192.552L1578.91 242.046V136.955C1578.91 132.887 1575.51 128.819 1570.76 128.819H1551.74C1547.67 128.819 1543.59 132.209 1543.59 136.955V320.017C1543.59 324.085 1546.99 328.153 1551.74 328.153H1570.76C1574.83 328.153 1578.91 324.763 1578.91 320.017V267.132L1631.88 325.441C1633.23 326.797 1635.27 328.153 1637.99 328.153H1661.76C1665.15 328.153 1667.87 326.119 1669.23 323.407C1670.58 320.695 1669.91 317.305 1667.87 315.271L1609.47 253.572Z" fill="white"/>
<path d="M1746.63 186.438C1705.88 186.438 1673.96 218.305 1673.96 258.307C1673.96 299.665 1705.88 330.175 1747.31 330.175C1772.43 330.175 1794.17 318.649 1807.07 299.665C1808.43 297.631 1808.43 294.919 1807.75 292.885C1807.07 290.851 1805.71 288.817 1803.67 288.139L1789.41 282.037C1786.02 280.681 1781.94 282.037 1779.9 284.749C1772.43 294.919 1760.21 301.021 1747.31 301.021C1726.93 301.021 1709.96 286.105 1707.92 265.765H1810.46C1814.54 265.765 1817.93 262.375 1818.61 258.307C1818.61 255.595 1818.61 253.561 1818.61 252.205C1815.22 214.236 1784.66 186.438 1746.63 186.438ZM1709.96 240.001C1716.07 224.407 1729.65 214.914 1746.63 214.914C1763.61 214.914 1777.19 224.407 1781.94 240.001H1709.96Z" fill="white"/>
<path d="M1917.77 190.509C1916.42 189.153 1913.7 188.474 1911.66 188.474C1896.72 189.83 1883.82 196.611 1874.31 206.103V197.289C1874.31 193.221 1870.92 189.152 1866.16 189.152H1847.83C1843.75 189.152 1839.68 192.543 1839.68 197.289V320.686C1839.68 324.754 1843.07 328.822 1847.83 328.822H1866.84C1870.92 328.822 1874.99 325.432 1874.99 320.686V257.631C1874.99 234.579 1887.21 223.053 1912.34 221.697C1916.42 221.697 1919.81 218.307 1919.81 214.239V196.611C1920.49 193.899 1919.81 191.865 1917.77 190.509Z" fill="white"/>
<circle cx="240" cy="240" r="240" fill="#C0180C"/>
<path d="M216.735 149.651C216.735 162.471 227.16 172.878 240 172.878C252.84 172.878 263.265 162.471 263.265 149.651C263.265 136.83 252.84 126.424 240 126.424C227.16 126.424 216.735 136.83 216.735 149.651Z" fill="white"/>
<path d="M400.423 186.944C386.97 173.491 369.914 164.963 351.42 162.28C350.213 162.107 349.025 161.954 347.798 161.839C347.358 161.801 346.898 161.762 346.457 161.724C345.556 161.647 344.675 161.571 343.774 161.532C343.352 161.513 342.95 161.475 342.528 161.456C341.244 161.398 339.941 161.36 338.638 161.36C337.335 161.36 336.146 161.398 334.901 161.456C334.403 161.475 333.904 161.513 333.406 161.532C332.716 161.571 332.045 161.628 331.355 161.686C329.746 161.82 328.136 161.992 326.545 162.203C307.822 164.79 290.536 173.318 276.929 186.887C276.929 186.887 276.872 186.925 276.853 186.963L240 223.816L215.067 248.748L178.215 285.601C168.039 295.777 154.7 300.875 141.362 300.875C128.024 300.875 114.686 295.777 104.509 285.601C84.1571 265.249 84.1571 232.248 104.509 211.896C114.686 201.72 128.024 196.622 141.362 196.622C154.7 196.622 167.981 201.681 178.138 211.819C178.157 211.838 178.176 211.877 178.215 211.896L198.797 232.478L223.73 207.546L203.147 186.944C203.128 186.925 203.09 186.906 203.071 186.867C182.795 166.515 182.814 133.553 203.147 113.22C213.323 103.043 226.662 97.9457 240 97.9457C253.338 97.9457 266.676 103.043 276.853 113.22C286.645 123.012 291.724 135.757 292.088 148.597C302.935 143.537 314.587 140.299 326.66 138.995C324.246 119.85 315.641 102.143 301.785 88.287C285.285 71.7867 263.342 62.7029 240 62.7029C216.658 62.7029 194.715 71.7867 178.215 88.3062C161.714 104.807 152.611 126.749 152.611 150.091C152.611 154.173 152.899 158.217 153.455 162.184C149.469 161.628 145.444 161.341 141.362 161.341C118.02 161.341 96.0772 170.425 79.5769 186.944C45.503 221.018 45.503 276.46 79.5769 310.534C96.0772 327.034 118.02 336.137 141.362 336.137C164.704 336.137 186.647 327.053 203.147 310.534L240 273.681L276.853 310.534C293.353 327.034 315.296 336.137 338.638 336.137C361.98 336.137 383.923 327.053 400.423 310.534C434.497 276.46 434.497 221.018 400.423 186.944ZM375.49 285.582C365.314 295.758 351.976 300.856 338.638 300.856C325.3 300.856 311.961 295.758 301.785 285.582L264.933 248.729L301.785 211.877C301.785 211.877 301.823 211.819 301.862 211.8C312.038 201.662 325.338 196.603 338.638 196.603C351.938 196.603 365.314 201.7 375.49 211.877C395.843 232.229 395.843 265.23 375.49 285.582Z" fill="white"/>
<path d="M276.853 366.761C266.676 376.937 253.338 382.035 240 382.035C226.662 382.035 213.323 376.937 203.147 366.761C197.494 361.108 193.431 354.458 190.921 347.386C180.38 352.695 169.054 356.278 157.23 357.965C161.465 370.517 168.556 382.035 178.215 391.694C194.715 408.194 216.658 417.297 240 417.297C263.342 417.297 285.285 408.213 301.785 391.694C311.425 382.054 318.535 370.537 322.77 357.965C310.965 356.278 299.639 352.695 289.098 347.386C286.588 354.458 282.506 361.089 276.853 366.761Z" fill="white"/>
</g>
<defs>
<clipPath id="clip0_310_5771">
<rect width="1920" height="480" fill="white"/>
</clipPath>
</defs>
</svg>
