<?xml version="1.0" encoding="utf-8"?>
<!-- Generator: Adobe Illustrator 24.0.1, SVG Export Plug-In . SVG Version: 6.00 Build 0)  -->
<svg version="1.1" id="Layer_1" xmlns="http://www.w3.org/2000/svg" xmlns:xlink="http://www.w3.org/1999/xlink" x="0px" y="0px"
	 viewBox="0 0 876 220" style="enable-background:new 0 0 876 220;" xml:space="preserve">
<style type="text/css">
	.st0{fill:#FFFFFF;}
	.st1{fill:#D70A0A;}
</style>
<path class="st0" d="M243.3,99.4c0-5.8-3.7-8.1-9.1-8.1h-16.1V108H233C239.7,108,243.3,105.3,243.3,99.4 M258.4,99.3
	c0,12.3-7.9,20.8-23.1,20.8h-17.2v20h-14.5V80h34.3C251,80,258.4,87.2,258.4,99.3"/>
<path class="st0" d="M315.8,110.2c0-12.8-7.8-19.1-17.8-19c-10,0.1-17.8,6.3-17.8,19c0,12.4,7.8,18.7,17.8,18.7
	C307.9,128.9,315.8,122.6,315.8,110.2 M331.2,110.2c0,20.3-14.9,30.7-33.2,30.7c-18.4,0-33.2-10.4-33.2-30.7
	c0-20.7,14.9-31.1,33.2-31.1C316.4,79,331.2,89.5,331.2,110.2"/>
<polygon class="st0" points="364.7,115.3 354.9,126.5 354.9,140 340.4,140 340.4,80 354.9,80 354.9,108.4 380.2,80 398.3,80 
	374.6,105.3 400.9,140 383,140 "/>
<polygon class="st0" points="423.1,92 423.1,103.6 452.8,103.6 452.8,115.1 423.1,115.1 423.1,127.8 456.3,127.8 456.3,140 
	408.6,140 408.6,80 456.3,80 456.3,92 "/>
<path class="st0" d="M481.5,106.9h15.8c5.9,0,9.9-2.2,9.9-7.6c0-5.8-4-7.9-9.4-7.9h-16.2V106.9z M491.8,118.5h-10.3V140H467V80h34.9
	c14,0,20.4,8,20.4,18.6c0,9.7-5.4,17.1-14.6,19l17.9,22.6h-17.6L491.8,118.5z"/>
<path class="st0" d="M557.6,79.1c7.3-0.1,14.5,0.6,21.6,2.1v12.5c-7.4-1.8-15-2.7-22.6-2.7c-7.1,0-11.4,2.2-11.5,5.8
	c-0.1,3.6,2.3,5.2,7.7,5.6l11.5,0.7c11.9,0.7,19,6.2,19,17.6c0,15.3-13,20.1-27.7,20.1c-7.5-0.1-15-0.8-22.4-2.1v-12.9
	c7.5,1.6,15.2,2.4,22.8,2.5c9.2,0,13.3-2.2,13.3-6.8c0-3.8-4-5.4-9.4-5.7l-9.5-0.5c-11.9-0.6-19.1-5.8-19.1-16.4
	C531.1,85.1,542.8,79.1,557.6,79.1"/>
<polygon class="st0" points="642.3,92.5 622.4,92.5 622.4,140 607.9,140 607.9,92.5 587.8,92.5 587.8,80 642.3,80 "/>
<path class="st0" d="M682.7,115.8l-9.8-25.2l-9.8,25.2H682.7z M687.2,127.6h-28.7l-4.8,12.5H638L662.7,80h20.4l24.6,60.1H692
	L687.2,127.6z"/>
<path class="st0" d="M729.7,106.9h15.8c5.9,0,9.9-2.2,9.9-7.6c0-5.8-4-7.9-9.4-7.9h-16.2V106.9z M740,118.5h-10.3V140h-14.5V80h34.9
	c14,0,20.4,8,20.4,18.6c0,9.7-5.4,17.1-14.6,19l17.9,22.6h-17.6L740,118.5z"/>
<path class="st0" d="M805.8,79.1c7.3-0.1,15,0.6,22.1,2.1v12.5c-7.4-1.8-15.5-2.7-23.1-2.7c-7.1,0-11.4,2.2-11.5,5.8
	c-0.1,3.6,2.3,5.2,7.7,5.6l11.5,0.7c11.9,0.7,19.4,6.2,19.4,17.6c0,15.3-13.4,20.1-28.2,20.1c-7.5,0-15-0.8-22.4-2.1v-12.9
	c7.5,1.6,15.2,2.4,22.8,2.5c9.2,0,13.3-2.2,13.3-6.8c0-3.8-3.9-5.4-9.4-5.7l-9.5-0.5c-11.8-0.6-19.2-5.8-19.2-16.3
	C779.3,85.1,791.1,79.1,805.8,79.1"/>
<path class="st1" d="M130.4,71.9c-17.3-17.3-28.4-28-28.4-28S91,54.6,73.7,71.9C64.6,81,44,103.6,44,126.1c0,15,12.2,27.2,27.2,27.2
	c9.9,0,18.5-5.3,23.2-13.1v0c0.5-0.6,1.3-1.1,2.1-1.1c1.4,0,2.7,1,2.5,2.2c-1,8.1-5.6,28-23.6,34.8h53c-18-6.7-22.5-26.7-23.6-34.8
	c-0.2-1.2,1.1-2.2,2.5-2.2c0.9,0,1.7,0.5,2.1,1.1l0,0c4.7,7.8,13.4,13.1,23.2,13.1c15,0,27.2-12.2,27.2-27.2
	C160.1,103.6,139.5,81,130.4,71.9"/>
<polygon class="st0" points="102.1,71.9 109.4,94.6 133.3,94.6 114,108.6 121.4,131.3 102.1,117.3 82.8,131.3 90.1,108.6 70.8,94.6 
	94.7,94.6 "/>
</svg>
